<svg xmlns="http://www.w3.org/2000/svg" xmlns:xlink="http://www.w3.org/1999/xlink" version="1.0" x="0" y="0" width="2400" height="1288.7874211347648" viewBox="102.5091619873047 88.7577734375 134.98169128417967 72.48446075439453" preserveAspectRatio="xMidYMid meet" color-interpolation-filters="sRGB"><g><defs><linearGradient id="92" x1="0%" y1="0%" x2="100%" y2="0%"><stop offset="0%" stop-color="#fa71cd"></stop> <stop offset="100%" stop-color="#9b59b6"></stop></linearGradient><linearGradient id="93" x1="0%" y1="0%" x2="100%" y2="0%"><stop offset="0%" stop-color="#f9d423"></stop> <stop offset="100%" stop-color="#f83600"></stop></linearGradient><linearGradient id="94" x1="0%" y1="0%" x2="100%" y2="0%"><stop offset="0%" stop-color="#0064d2"></stop> <stop offset="100%" stop-color="#1cb0f6"></stop></linearGradient><linearGradient id="95" x1="0%" y1="0%" x2="100%" y2="0%"><stop offset="0%" stop-color="#f00978"></stop> <stop offset="100%" stop-color="#3f51b1"></stop></linearGradient><linearGradient id="96" x1="0%" y1="0%" x2="100%" y2="0%"><stop offset="0%" stop-color="#7873f5"></stop> <stop offset="100%" stop-color="#ec77ab"></stop></linearGradient><linearGradient id="97" x1="0%" y1="0%" x2="100%" y2="0%"><stop offset="0%" stop-color="#f9d423"></stop> <stop offset="100%" stop-color="#e14fad"></stop></linearGradient><linearGradient id="98" x1="0%" y1="0%" x2="100%" y2="0%"><stop offset="0%" stop-color="#009efd"></stop> <stop offset="100%" stop-color="#2af598"></stop></linearGradient><linearGradient id="99" x1="0%" y1="0%" x2="100%" y2="0%"><stop offset="0%" stop-color="#ffcc00"></stop> <stop offset="100%" stop-color="#00b140"></stop></linearGradient><linearGradient id="100" x1="0%" y1="0%" x2="100%" y2="0%"><stop offset="0%" stop-color="#d51007"></stop> <stop offset="100%" stop-color="#ff8177"></stop></linearGradient><linearGradient id="102" x1="0%" y1="0%" x2="100%" y2="0%"><stop offset="0%" stop-color="#a2b6df"></stop> <stop offset="100%" stop-color="#0c3483"></stop></linearGradient><linearGradient id="103" x1="0%" y1="0%" x2="100%" y2="0%"><stop offset="0%" stop-color="#7ac5d8"></stop> <stop offset="100%" stop-color="#eea2a2"></stop></linearGradient><linearGradient id="104" x1="0%" y1="0%" x2="100%" y2="0%"><stop offset="0%" stop-color="#00ecbc"></stop> <stop offset="100%" stop-color="#007adf"></stop></linearGradient><linearGradient id="105" x1="0%" y1="0%" x2="100%" y2="0%"><stop offset="0%" stop-color="#b88746"></stop> <stop offset="100%" stop-color="#fdf5a6"></stop></linearGradient></defs><g fill="#ffffff" class="iconlinesvg-g iconlinesvg" transform="translate(103.83250427246094,90.08111953735352)"><g class="tp-name" transform="translate(0,0)"><g transform="translate(0, 0)"><g><g class="imagesvg"><g><rect fill="#ffffff" fill-opacity="0" stroke-width="2" x="0" y="0" width="55.823744696107084" height="55.68175621775181" class="image-rect"></rect> <svg x="0" y="0" width="55.823744696107084" height="55.68175621775181" filtersec="colorsb1077580220" class="image-svg-svg primary" style="overflow: visible;"><svg xmlns="http://www.w3.org/2000/svg" viewBox="0 0 74.63999938964844 74.44999694824219"><path fill="#23D2CC" opacity=".8" d="M0 74.45L24.88 0l24.88 74.45H0z"></path><path fill="#9DE2CF" opacity=".8" d="M24.88 74.45L49.76 0l24.88 74.45H24.88z"></path></svg></svg> </g></g></g></g><g transform="translate(59, 4.830878108875904)"><g fill="#ffffff" transform="scale(1)"><path d="M29.57 0L29.57-5.20Q25.68 0.52 17.94 0.52L17.94 0.52Q10.92 0.52 6.50-4.36L6.50-4.36Q2.21-9.17 2.21-16.25L2.21-16.25Q2.21-23.34 6.50-28.14L6.50-28.14Q10.92-33.02 18.27-33.02Q25.61-33.02 29.57-27.23L29.57-27.23L29.57-32.50L34.45-32.50L34.45 0L29.57 0ZM18.59-3.90L18.59-3.90Q23.86-3.90 26.91-7.54L26.91-7.54Q29.84-10.99 29.84-16.25L29.84-16.25Q29.84-21.52 26.91-24.96L26.91-24.96Q23.86-28.60 18.59-28.60L18.59-28.60Q13.39-28.60 10.14-24.96L10.14-24.96Q7.08-21.52 7.08-16.25L7.08-16.25Q7.08-10.99 10.14-7.54L10.14-7.54Q13.39-3.90 18.59-3.90Z" transform="translate(-2.21, 45.5)"></path></g></g><g transform="translate(95, 4.830878108875904)"><g fill="#ffffff" transform="scale(1)"><path d="M4.23 0L4.23-32.50L9.10-32.50L9.10 0L4.23 0ZM4.03-44.33L9.29-44.33L9.29-37.96L4.03-37.96L4.03-44.33Z" transform="translate(-4.03, 45.5)"></path></g></g><g transform="translate(104, 4.830878108875904)"><g fill="#ffffff" transform="scale(1)"><path d="M31.59-32.50L18.53-19.70L32.56 0L26.59 0L15.21-16.32L9.10-10.27L9.10 0L4.23 0L4.23-45.50L9.10-45.50L9.10-16.38L24.77-32.50L31.59-32.50Z" transform="translate(-4.2250000000000005, 45.5)"></path></g></g></g> <g fill-rule="" class="tp-slogan" fill="#ffffff" transform="translate(5.000003814697266,61.68175506591797)"><rect x="0" height="1" y="3.580000400543213" width="45.29749584197998"></rect> <rect height="1" y="3.580000400543213" width="45.29749584197998" x="77.03749561309814"></rect> <g transform="translate(48.29749584197998,0)"><g transform="scale(1)"><path d="M1.08-7.87L1.08 0L3.59 0C4.03 0 4.43-0.05 4.80-0.14C5.17-0.24 5.48-0.38 5.75-0.58C6.01-0.77 6.22-1.01 6.36-1.30C6.50-1.58 6.58-1.92 6.58-2.30C6.58-2.85 6.42-3.28 6.10-3.59C5.78-3.90 5.33-4.10 4.75-4.19L4.75-4.24C5.22-4.36 5.56-4.57 5.78-4.89C6.01-5.21 6.12-5.56 6.12-5.95C6.12-6.30 6.05-6.59 5.92-6.83C5.79-7.08 5.61-7.28 5.37-7.43C5.13-7.58 4.85-7.69 4.52-7.76C4.19-7.84 3.82-7.87 3.42-7.87ZM3.24-4.51L2.08-4.51L2.08-7.08L3.29-7.08C3.90-7.08 4.37-6.99 4.67-6.80C4.98-6.61 5.14-6.30 5.14-5.87C5.14-5.43 4.99-5.09 4.70-4.86C4.41-4.63 3.92-4.51 3.24-4.51ZM3.44-0.79L2.08-0.79L2.08-3.77L3.44-3.77C4.14-3.77 4.67-3.65 5.04-3.43C5.41-3.20 5.59-2.84 5.59-2.35C5.59-1.82 5.40-1.42 5.03-1.17C4.65-0.92 4.12-0.79 3.44-0.79ZM8.10-7.87L8.10-3.25C8.10-2.62 8.17-2.09 8.32-1.66C8.46-1.22 8.66-0.87 8.91-0.61C9.16-0.34 9.46-0.15 9.81-0.03C10.16 0.09 10.53 0.14 10.93 0.14C11.33 0.14 11.70 0.09 12.05-0.03C12.39-0.15 12.69-0.34 12.94-0.61C13.19-0.87 13.39-1.22 13.54-1.66C13.68-2.09 13.75-2.62 13.75-3.25L13.75-7.87L12.79-7.87L12.79-3.23C12.79-2.76 12.74-2.36 12.65-2.04C12.55-1.72 12.42-1.46 12.25-1.27C12.08-1.08 11.89-0.94 11.66-0.86C11.44-0.77 11.20-0.73 10.93-0.73C10.68-0.73 10.44-0.77 10.21-0.86C9.99-0.94 9.79-1.08 9.63-1.27C9.47-1.46 9.34-1.72 9.24-2.04C9.14-2.36 9.10-2.76 9.10-3.23L9.10-7.87ZM15.78-1.72L15.18-1.02C15.52-0.66 15.93-0.38 16.40-0.17C16.88 0.04 17.39 0.14 17.94 0.14C18.36 0.14 18.73 0.09 19.06-0.03C19.38-0.15 19.66-0.31 19.90-0.51C20.13-0.71 20.31-0.95 20.43-1.22C20.55-1.50 20.62-1.79 20.62-2.10C20.62-2.39 20.57-2.64 20.49-2.86C20.41-3.08 20.29-3.27 20.15-3.44C20.00-3.60 19.83-3.75 19.63-3.87C19.43-3.99 19.22-4.10 19.00-4.20L17.88-4.68C17.72-4.74 17.56-4.81 17.41-4.89C17.26-4.97 17.12-5.05 16.99-5.15C16.86-5.25 16.76-5.37 16.69-5.50C16.61-5.63 16.57-5.80 16.57-5.99C16.57-6.35 16.71-6.63 16.97-6.83C17.24-7.04 17.60-7.14 18.04-7.14C18.40-7.14 18.73-7.07 19.03-6.94C19.32-6.81 19.58-6.63 19.82-6.40L20.36-7.04C20.08-7.33 19.74-7.57 19.34-7.75C18.94-7.93 18.51-8.02 18.04-8.02C17.68-8.02 17.35-7.96 17.05-7.86C16.75-7.76 16.49-7.61 16.27-7.42C16.05-7.23 15.87-7.01 15.75-6.76C15.63-6.50 15.56-6.22 15.56-5.93C15.56-5.64 15.61-5.39 15.71-5.17C15.80-4.95 15.93-4.76 16.08-4.60C16.23-4.44 16.40-4.30 16.60-4.19C16.79-4.08 16.98-3.98 17.16-3.90L18.29-3.41C18.47-3.32 18.64-3.24 18.80-3.16C18.96-3.08 19.10-2.99 19.22-2.89C19.33-2.79 19.43-2.67 19.49-2.53C19.56-2.39 19.60-2.22 19.60-2.02C19.60-1.63 19.45-1.32 19.16-1.09C18.88-0.85 18.47-0.73 17.95-0.73C17.54-0.73 17.15-0.82 16.77-1.00C16.39-1.18 16.06-1.42 15.78-1.72ZM22.16-7.87L22.16 0L26.82 0L26.82-0.85L23.16-0.85L23.16-3.71L26.15-3.71L26.15-4.56L23.16-4.56L23.16-7.03L26.70-7.03L26.70-7.87Z" transform="translate(-1.08, 8.016)"></path></g></g></g></g><defs v-gra="od"></defs></g></svg>